<?xml version="1.0" encoding="UTF-8"?>
<svg version="1.1" xmlns="http://www.w3.org/2000/svg" width="32" height="32">
<path d="M0 0 C10.56 0 21.12 0 32 0 C32 10.56 32 21.12 32 32 C21.44 32 10.88 32 0 32 C0 21.44 0 10.88 0 0 Z " fill="#292319" transform="translate(0,0)"/>
<path d="M0 0 C3.40609411 2.30864925 5.5832408 4.99576712 6.4296875 9.06640625 C6.56655183 13.0734898 5.78166412 16.43667175 4 20 C-2.22499605 20.92686058 -7.08644538 21.34078204 -13 19 C-15.57662281 16.42337719 -15.34115688 15.07916539 -15.5625 11.5 C-15.73519346 7.60401365 -15.73519346 7.60401365 -17 4 C-11.88298168 -1.46991614 -7.1139722 -1.95220632 0 0 Z " fill="#463B28" transform="translate(25,4)"/>
<path d="M0 0 C10.56 0 21.12 0 32 0 C32 2.31 32 4.62 32 7 C31.46890625 6.72285156 30.9378125 6.44570312 30.390625 6.16015625 C29.68421875 5.79792969 28.9778125 5.43570312 28.25 5.0625 C27.55390625 4.70285156 26.8578125 4.34320312 26.140625 3.97265625 C21.40956059 1.82295728 17.36988524 2.01648864 12.25 2.4375 C11.20392578 2.51581055 11.20392578 2.51581055 10.13671875 2.59570312 C8.42403797 2.72474072 6.71194934 2.86159614 5 3 C5 4.98 5 6.96 5 9 C4.34 9 3.68 9 3 9 C3.37125 9.5775 3.7425 10.155 4.125 10.75 C4.41375 11.4925 4.7025 12.235 5 13 C4.3507041 14.34187818 3.68268138 15.67479497 3 17 C3.27942455 18.67654729 3.60828247 20.34608154 4 22 C3.67 22.66 3.34 23.32 3 24 C3.62648437 24.04898437 4.25296875 24.09796875 4.8984375 24.1484375 C5.71570313 24.22320313 6.53296875 24.29796875 7.375 24.375 C8.18710938 24.44460937 8.99921875 24.51421875 9.8359375 24.5859375 C12 25 12 25 14 27 C14.33 28.65 14.66 30.3 15 32 C10.05 32 5.1 32 0 32 C0 21.44 0 10.88 0 0 Z " fill="#0E0C08" transform="translate(0,0)"/>
<path d="M0 0 C1.35158203 0.15275391 1.35158203 0.15275391 2.73046875 0.30859375 C3.41753906 0.39238281 4.10460937 0.47617187 4.8125 0.5625 C4.1525 1.2225 3.4925 1.8825 2.8125 2.5625 C1.8225 2.5625 0.8325 2.5625 -0.1875 2.5625 C-0.1875 3.2225 -0.1875 3.8825 -0.1875 4.5625 C-0.8475 4.5625 -1.5075 4.5625 -2.1875 4.5625 C-1.8575 5.2225 -1.5275 5.8825 -1.1875 6.5625 C-1.11753986 8.26952735 -1.10309846 9.97918003 -1.125 11.6875 C-1.13402344 12.59757812 -1.14304687 13.50765625 -1.15234375 14.4453125 C-1.16394531 15.14398438 -1.17554688 15.84265625 -1.1875 16.5625 C-2.84364657 16.94468767 -4.51207024 17.27645102 -6.1875 17.5625 C-7.1875 16.5625 -7.1875 16.5625 -7.28515625 14.27734375 C-7.27355469 13.36082031 -7.26195312 12.44429687 -7.25 11.5 C-7.24097656 10.58089844 -7.23195313 9.66179688 -7.22265625 8.71484375 C-7.21105469 8.00457031 -7.19945312 7.29429688 -7.1875 6.5625 C-8.8375 6.2325 -10.4875 5.9025 -12.1875 5.5625 C-8.37624417 0.43701802 -6.32931554 -0.73979013 0 0 Z " fill="#474132" transform="translate(20.1875,3.4375)"/>
<path d="M0 0 C8.91042572 2.2164498 8.91042572 2.2164498 12 6 C12.34057617 7.99291992 12.34057617 7.99291992 12.29296875 10.23046875 C12.28330078 11.03291016 12.27363281 11.83535156 12.26367188 12.66210938 C12.23853516 13.49548828 12.21339844 14.32886719 12.1875 15.1875 C12.16719727 16.4549707 12.16719727 16.4549707 12.14648438 17.74804688 C12.11115799 19.83230384 12.05735139 21.91623277 12 24 C10.140625 25.0546875 10.140625 25.0546875 8 26 C5.75 25.125 5.75 25.125 4 24 C4 23.67 4 23.34 4 23 C5.65 22.67 7.3 22.34 9 22 C9.93619813 18.84493858 10.1057123 16.03413498 10.0625 12.75 C10.05347656 11.85796875 10.04445313 10.9659375 10.03515625 10.046875 C10.02355469 9.37140625 10.01195313 8.6959375 10 8 C9.01 7.67 8.02 7.34 7 7 C6.34 6.01 5.68 5.02 5 4 C2.67951232 3.37901938 2.67951232 3.37901938 0.0625 3.25 C-0.81277344 3.17265625 -1.68804687 3.0953125 -2.58984375 3.015625 C-6.0733047 2.99304178 -7.65224838 3.6721199 -10.1875 6.0625 C-10.785625 6.701875 -11.38375 7.34125 -12 8 C-12.33 7.01 -12.66 6.02 -13 5 C-8.61126756 0.71830982 -6.37022322 -0.86375908 0 0 Z " fill="#2E2A22" transform="translate(20,1)"/>
<path d="M0 0 C1.95803507 -0.05389087 3.91648909 -0.09274217 5.875 -0.125 C7.51082031 -0.15980469 7.51082031 -0.15980469 9.1796875 -0.1953125 C12 0 12 0 14 2 C14.33 3.65 14.66 5.3 15 7 C10.05 7 5.1 7 0 7 C0 4.69 0 2.38 0 0 Z " fill="#050400" transform="translate(0,25)"/>
<path d="M0 0 C1.65 0 3.3 0 5 0 C5 3.63 5 7.26 5 11 C6.32 11 7.64 11 9 11 C9.33 7.37 9.66 3.74 10 0 C11.32 0.33 12.64 0.66 14 1 C13.88610125 2.79240663 13.75852313 4.58394835 13.625 6.375 C13.55539063 7.37273438 13.48578125 8.37046875 13.4140625 9.3984375 C13 12 13 12 11 14 C7.46782421 13.67889311 4.36550494 13.12183498 1 12 C0.67 8.04 0.34 4.08 0 0 Z " fill="#916725" transform="translate(9,9)"/>
<path d="M0 0 C1.32 0 2.64 0 4 0 C4.33 0 4.66 0 5 0 C5 2.31 5 4.62 5 7 C3.23050905 7.10815225 1.45912513 7.18566083 -0.3125 7.25 C-1.29863281 7.29640625 -2.28476562 7.3428125 -3.30078125 7.390625 C-6 7 -6 7 -7.85546875 4.984375 C-8.42201172 4.00210937 -8.42201172 4.00210937 -9 3 C-7.14143301 -0.71713399 -3.68665437 -0.0899184 0 0 Z " fill="#070602" transform="translate(27,25)"/>
<path d="M0 0 C-0.99 0.33 -1.98 0.66 -3 1 C-2.49396008 3.16874252 -2.00016187 4.99967627 -1 7 C-2.98 7 -4.96 7 -7 7 C-7.350625 6.030625 -7.70125 5.06125 -8.0625 4.0625 C-9.75003667 0.60565398 -9.75003667 0.60565398 -13.6875 0.125 C-15.3271875 0.063125 -15.3271875 0.063125 -17 0 C-17 -0.33 -17 -0.66 -17 -1 C-10.90367577 -2.32528788 -6.02232181 -1.46619907 0 0 Z " fill="#262117" transform="translate(22,25)"/>
<path d="M0 0 C0.33 2.31 0.66 4.62 1 7 C-0.65 7 -2.3 7 -4 7 C-4 9.31 -4 11.62 -4 14 C-4.33 14 -4.66 14 -5 14 C-5 10.7 -5 7.4 -5 4 C-6.32 4 -7.64 4 -9 4 C-9 3.34 -9 2.68 -9 2 C-8.34 2 -7.68 2 -7 2 C-7 1.34 -7 0.68 -7 0 C-3.86650268 -1.04449911 -3.01031744 -0.93423645 0 0 Z " fill="#584D39" transform="translate(27,6)"/>
<path d="M0 0 C0.99 0.66 1.98 1.32 3 2 C3.34057617 3.87939453 3.34057617 3.87939453 3.29296875 6.1328125 C3.28330078 6.93847656 3.27363281 7.74414062 3.26367188 8.57421875 C3.23853516 9.41597656 3.21339844 10.25773438 3.1875 11.125 C3.17396484 11.97449219 3.16042969 12.82398438 3.14648438 13.69921875 C3.11108219 15.79974837 3.05727401 17.89995293 3 20 C1.140625 21.0546875 1.140625 21.0546875 -1 22 C-3.25 21.125 -3.25 21.125 -5 20 C-5 19.67 -5 19.34 -5 19 C-3.35 18.67 -1.7 18.34 0 18 C1.93753594 12.18739218 1.17814715 5.89073573 0 0 Z " fill="#252118" transform="translate(29,5)"/>
<path d="M0 0 C0.66 0 1.32 0 2 0 C2.06058594 0.75925781 2.12117187 1.51851562 2.18359375 2.30078125 C2.26738281 3.29464844 2.35117188 4.28851563 2.4375 5.3125 C2.51871094 6.29863281 2.59992187 7.28476562 2.68359375 8.30078125 C2.91812559 11.09375599 2.91812559 11.09375599 4 14 C1.36 14 -1.28 14 -4 14 C-3.67 13.01 -3.34 12.02 -3 11 C-2.01 11 -1.02 11 0 11 C-0.66 10.01 -1.32 9.02 -2 8 C-1.34 6.68 -0.68 5.36 0 4 C-0.66 4 -1.32 4 -2 4 C-2 3.34 -2 2.68 -2 2 C-1.34 2 -0.68 2 0 2 C0 1.34 0 0.68 0 0 Z " fill="#352D20" transform="translate(8,10)"/>
<path d="M0 0 C1.4606285 2.64738916 2 3.89448334 2 7 C2.66 7.33 3.32 7.66 4 8 C4.33 7.01 4.66 6.02 5 5 C5 6.98 5 8.96 5 11 C3.34385343 11.38218767 1.67542976 11.71395102 0 12 C-1 11 -1 11 -1.1328125 8.75 C-1.13023438 7.8425 -1.12765625 6.935 -1.125 6 C-1.12757812 5.0925 -1.13015625 4.185 -1.1328125 3.25 C-1 1 -1 1 0 0 Z " fill="#363227" transform="translate(14,9)"/>
<path d="M0 0 C0.66 0 1.32 0 2 0 C2.8125 3.25 2.8125 3.25 3 7 C0.5625 9.4375 0.5625 9.4375 -2 11 C-2 9.68 -2 8.36 -2 7 C-2.66 6.34 -3.32 5.68 -4 5 C-2.68 4.67 -1.36 4.34 0 4 C-0.33 3.01 -0.66 2.02 -1 1 C-0.67 0.67 -0.34 0.34 0 0 Z " fill="#494132" transform="translate(28,9)"/>
<path d="M0 0 C1.65 0 3.3 0 5 0 C4.9129995 1.62600941 4.8048219 3.25089678 4.6875 4.875 C4.62949219 5.77992187 4.57148438 6.68484375 4.51171875 7.6171875 C4 10 4 10 1 12 C0.67 8.04 0.34 4.08 0 0 Z " fill="#79521B" transform="translate(9,9)"/>
<path d="M0 0 C0.66 0.33 1.32 0.66 2 1 C2 1.99 2 2.98 2 4 C1.34 4 0.68 4 0 4 C0.37125 4.5775 0.7425 5.155 1.125 5.75 C2 8 2 8 1.1875 10.125 C0.795625 10.74375 0.40375 11.3625 0 12 C-0.33 12.66 -0.66 13.32 -1 14 C-2.65653686 12.34346314 -2.17106165 10.39349204 -2.1875 8.125 C-2.20167969 7.24070312 -2.21585937 6.35640625 -2.23046875 5.4453125 C-2 3 -2 3 0 0 Z " fill="#1A160E" transform="translate(3,5)"/>
<path d="M0 0 C0 0.66 0 1.32 0 2 C-0.99 2.33 -1.98 2.66 -3 3 C-4.37195574 4.29355827 -5.71182656 5.62298702 -7 7 C-7.33 6.01 -7.66 5.02 -8 4 C-4.5 0 -4.5 0 0 0 Z " fill="#373227" transform="translate(15,2)"/>
<path d="M0 0 C0.33 0.99 0.66 1.98 1 3 C-2.22791555 5.1519437 -3.28400809 5.20086443 -7 5 C-7 4.34 -7 3.68 -7 3 C-6.34 3 -5.68 3 -5 3 C-5 2.34 -5 1.68 -5 1 C-2 0 -2 0 0 0 Z " fill="#5F5642" transform="translate(25,5)"/>
<path d="M0 0 C1.35439668 2.70879335 1.06501451 5.00933268 1 8 C0.690625 7.360625 0.38125 6.72125 0.0625 6.0625 C-0.8345163 4.06389179 -0.8345163 4.06389179 -2 3 C-4.32817964 2.63239269 -6.6618385 2.29758419 -9 2 C-9 1.67 -9 1.34 -9 1 C-2.25 0 -2.25 0 0 0 Z " fill="#201A0F" transform="translate(14,23)"/>
<path d="M0 0 C0.66 1.32 1.32 2.64 2 4 C1.01 4.495 1.01 4.495 0 5 C0.33 5.99 0.66 6.98 1 8 C0.01 8 -0.98 8 -2 8 C-2 5.69 -2 3.38 -2 1 C-1.34 0.67 -0.68 0.34 0 0 Z " fill="#3D382C" transform="translate(25,12)"/>
</svg>
